<svg width="133" height="40" viewBox="0 0 133 40" fill="none" xmlns="http://www.w3.org/2000/svg">
<path fill-rule="evenodd" clip-rule="evenodd" d="M0 15C0 6.71573 6.71573 0 15 0H25C33.2843 0 40 6.71573 40 15V25C40 33.2843 33.2843 40 25 40H15C6.71573 40 0 33.2843 0 25V15ZM18.7645 12.6393C17.7267 12.8229 16.7983 13.3242 16.0837 14.0389C15.5876 14.535 15.1945 15.1337 14.939 15.8011H20.5337V19.4076H14.9392H14.6065V24.6309V30.3248H11V17.6045C11 15.2166 11.9685 13.0541 13.5336 11.4889C14.9032 10.1195 16.7298 9.20691 18.7645 9.00008V12.6393ZM20.5339 9.00008V12.6242C22.9018 12.9897 24.7156 15.0368 24.7156 17.507C24.7156 18.8495 24.165 20.2195 23.2147 21.1698C22.3759 22.009 21.2423 22.5534 19.9825 22.6355V21.1765H16.3759V21.439V25.6117V30.3248H19.9825V26.2469C20.8214 26.215 21.6292 26.0633 22.3901 25.8092C22.3451 25.8243 22.2999 25.8394 22.2543 25.8539L24.8357 30.3248H29.0002L25.3906 24.0725C25.3584 24.101 25.326 24.1289 25.2935 24.1569C25.456 24.0168 25.6131 23.8712 25.7648 23.7198C27.33 22.1546 28.2983 19.9921 28.2983 17.6045C28.2983 15.2163 27.33 13.0538 25.7648 11.4889C24.3953 10.1195 22.5685 9.20691 20.5339 9.00008ZM25.2627 24.1833C25.2729 24.1745 25.2832 24.1657 25.2935 24.1569C25.2832 24.1657 25.273 24.1745 25.2627 24.1833Z" fill="#222222"/>
<path d="M51.632 28V11.2H62.48V13.672H54.704V18.376H60.992V20.8H54.704V28H51.632ZM64.7788 28V16.096H67.5148L67.8028 18.328C68.2348 17.56 68.8188 16.952 69.5547 16.504C70.3068 16.04 71.1868 15.808 72.1948 15.808V19.048H71.3308C70.6588 19.048 70.0588 19.152 69.5308 19.36C69.0028 19.568 68.5868 19.928 68.2828 20.44C67.9948 20.952 67.8508 21.664 67.8508 22.576V28H64.7788ZM79.8674 28.288C78.6674 28.288 77.6034 28.032 76.6754 27.52C75.7474 27.008 75.0194 26.288 74.4914 25.36C73.9634 24.432 73.6994 23.36 73.6994 22.144C73.6994 20.912 73.9554 19.816 74.4674 18.856C74.9954 17.896 75.7154 17.152 76.6274 16.624C77.5554 16.08 78.6434 15.808 79.8914 15.808C81.0594 15.808 82.0914 16.064 82.9874 16.576C83.8834 17.088 84.5794 17.792 85.0754 18.688C85.5874 19.568 85.8434 20.552 85.8434 21.64C85.8434 21.816 85.8354 22 85.8194 22.192C85.8194 22.384 85.8114 22.584 85.7954 22.792H76.7474C76.8114 23.72 77.1314 24.448 77.7074 24.976C78.2994 25.504 79.0114 25.768 79.8434 25.768C80.4674 25.768 80.9874 25.632 81.4034 25.36C81.8354 25.072 82.1554 24.704 82.3634 24.256H85.4834C85.2594 25.008 84.8834 25.696 84.3554 26.32C83.8434 26.928 83.2034 27.408 82.4354 27.76C81.6834 28.112 80.8274 28.288 79.8674 28.288ZM79.8914 18.304C79.1394 18.304 78.4754 18.52 77.8994 18.952C77.3234 19.368 76.9554 20.008 76.7954 20.872H82.7234C82.6754 20.088 82.3874 19.464 81.8594 19C81.3314 18.536 80.6754 18.304 79.8914 18.304ZM94.2112 28.288C93.0112 28.288 91.9472 28.032 91.0192 27.52C90.0912 27.008 89.3632 26.288 88.8352 25.36C88.3072 24.432 88.0432 23.36 88.0432 22.144C88.0432 20.912 88.2992 19.816 88.8112 18.856C89.3392 17.896 90.0592 17.152 90.9712 16.624C91.8992 16.08 92.9872 15.808 94.2352 15.808C95.4032 15.808 96.4352 16.064 97.3312 16.576C98.2272 17.088 98.9232 17.792 99.4192 18.688C99.9312 19.568 100.187 20.552 100.187 21.64C100.187 21.816 100.179 22 100.163 22.192C100.163 22.384 100.155 22.584 100.139 22.792H91.0912C91.1552 23.72 91.4752 24.448 92.0512 24.976C92.6432 25.504 93.3552 25.768 94.1872 25.768C94.8112 25.768 95.3312 25.632 95.7472 25.36C96.1792 25.072 96.4992 24.704 96.7072 24.256H99.8272C99.6032 25.008 99.2272 25.696 98.6992 26.32C98.1872 26.928 97.5472 27.408 96.7792 27.76C96.0272 28.112 95.1712 28.288 94.2112 28.288ZM94.2352 18.304C93.4832 18.304 92.8192 18.52 92.2432 18.952C91.6672 19.368 91.2992 20.008 91.1392 20.872H97.0672C97.0192 20.088 96.7312 19.464 96.2032 19C95.6752 18.536 95.0192 18.304 94.2352 18.304ZM104.427 14.248C103.867 14.248 103.403 14.08 103.035 13.744C102.683 13.408 102.507 12.984 102.507 12.472C102.507 11.96 102.683 11.544 103.035 11.224C103.403 10.888 103.867 10.72 104.427 10.72C104.987 10.72 105.443 10.888 105.795 11.224C106.163 11.544 106.347 11.96 106.347 12.472C106.347 12.984 106.163 13.408 105.795 13.744C105.443 14.08 104.987 14.248 104.427 14.248ZM102.891 28V16.096H105.963V28H102.891ZM114.881 28.288C113.729 28.288 112.689 28.024 111.761 27.496C110.849 26.968 110.121 26.24 109.577 25.312C109.049 24.368 108.785 23.28 108.785 22.048C108.785 20.816 109.057 19.736 109.601 18.808C110.145 17.864 110.873 17.128 111.785 16.6C112.713 16.072 113.753 15.808 114.905 15.808C116.041 15.808 117.065 16.072 117.977 16.6C118.905 17.128 119.633 17.864 120.161 18.808C120.705 19.736 120.977 20.816 120.977 22.048C120.977 23.28 120.705 24.368 120.161 25.312C119.633 26.24 118.905 26.968 117.977 27.496C117.049 28.024 116.017 28.288 114.881 28.288ZM114.881 25.624C115.681 25.624 116.377 25.328 116.969 24.736C117.561 24.128 117.857 23.232 117.857 22.048C117.857 20.864 117.561 19.976 116.969 19.384C116.377 18.776 115.689 18.472 114.905 18.472C114.089 18.472 113.385 18.776 112.793 19.384C112.217 19.976 111.929 20.864 111.929 22.048C111.929 23.232 112.217 24.128 112.793 24.736C113.385 25.328 114.081 25.624 114.881 25.624ZM125.044 28.168C124.484 28.168 124.02 27.992 123.652 27.64C123.3 27.288 123.124 26.864 123.124 26.368C123.124 25.856 123.3 25.424 123.652 25.072C124.02 24.72 124.484 24.544 125.044 24.544C125.604 24.544 126.06 24.72 126.412 25.072C126.78 25.424 126.964 25.856 126.964 26.368C126.964 26.864 126.78 27.288 126.412 27.64C126.06 27.992 125.604 28.168 125.044 28.168Z" fill="#222222"/>
</svg>
