<svg width="133" height="41" viewBox="0 0 133 41" fill="none" xmlns="http://www.w3.org/2000/svg">
<path fill-rule="evenodd" clip-rule="evenodd" d="M0 15.7363C0 7.45206 6.71573 0.736328 15 0.736328H25C33.2843 0.736328 40 7.45206 40 15.7363V25.7363C40 34.0206 33.2843 40.7363 25 40.7363H15C6.71573 40.7363 0 34.0206 0 25.7363V15.7363ZM18.7645 13.3757C17.7267 13.5593 16.7983 14.0605 16.0837 14.7753C15.5876 15.2713 15.1945 15.87 14.939 16.5374H20.5337V20.1439H14.9392H14.6065V25.3672V31.0611H11V18.3408C11 15.953 11.9685 13.7905 13.5336 12.2252C14.9032 10.8558 16.7298 9.94323 18.7645 9.73641V13.3757ZM20.5339 9.73641V13.3606C22.9018 13.7261 24.7156 15.7731 24.7156 18.2434C24.7156 19.5858 24.165 20.9558 23.2147 21.9061C22.3759 22.7453 21.2423 23.2898 19.9825 23.3718V21.9128H16.3759V22.1753V26.348V31.0611H19.9825V26.9832C20.8214 26.9513 21.6292 26.7996 22.3901 26.5455C22.3451 26.5606 22.2999 26.5757 22.2543 26.5902L24.8357 31.0611H29.0002L25.3906 24.8089C25.3584 24.8373 25.326 24.8652 25.2935 24.8932C25.456 24.7531 25.6131 24.6076 25.7648 24.4561C27.33 22.8909 28.2983 20.7284 28.2983 18.3408C28.2983 15.9527 27.33 13.7902 25.7648 12.2252C24.3953 10.8558 22.5685 9.94323 20.5339 9.73641ZM25.2627 24.9197C25.2729 24.9108 25.2832 24.902 25.2935 24.8932C25.2832 24.902 25.273 24.9109 25.2627 24.9197Z" fill="white"/>
<path d="M51.632 28.7363V11.9363H62.48V14.4083H54.704V19.1123H60.992V21.5363H54.704V28.7363H51.632ZM64.7788 28.7363V16.8323H67.5148L67.8028 19.0643C68.2348 18.2963 68.8188 17.6883 69.5547 17.2403C70.3068 16.7763 71.1868 16.5443 72.1948 16.5443V19.7843H71.3308C70.6588 19.7843 70.0588 19.8883 69.5308 20.0963C69.0028 20.3043 68.5868 20.6643 68.2828 21.1763C67.9948 21.6883 67.8508 22.4003 67.8508 23.3123V28.7363H64.7788ZM79.8674 29.0243C78.6674 29.0243 77.6034 28.7683 76.6754 28.2563C75.7474 27.7443 75.0194 27.0243 74.4914 26.0963C73.9634 25.1683 73.6994 24.0963 73.6994 22.8803C73.6994 21.6483 73.9554 20.5523 74.4674 19.5923C74.9954 18.6323 75.7154 17.8883 76.6274 17.3603C77.5554 16.8163 78.6434 16.5443 79.8914 16.5443C81.0594 16.5443 82.0914 16.8003 82.9874 17.3123C83.8834 17.8243 84.5794 18.5283 85.0754 19.4243C85.5874 20.3043 85.8434 21.2883 85.8434 22.3763C85.8434 22.5523 85.8354 22.7363 85.8194 22.9283C85.8194 23.1203 85.8114 23.3203 85.7954 23.5283H76.7474C76.8114 24.4563 77.1314 25.1843 77.7074 25.7123C78.2994 26.2403 79.0114 26.5043 79.8434 26.5043C80.4674 26.5043 80.9874 26.3683 81.4034 26.0963C81.8354 25.8083 82.1554 25.4403 82.3634 24.9923H85.4834C85.2594 25.7443 84.8834 26.4323 84.3554 27.0563C83.8434 27.6643 83.2034 28.1443 82.4354 28.4963C81.6834 28.8483 80.8274 29.0243 79.8674 29.0243ZM79.8914 19.0403C79.1394 19.0403 78.4754 19.2563 77.8994 19.6883C77.3234 20.1043 76.9554 20.7443 76.7954 21.6083H82.7234C82.6754 20.8243 82.3874 20.2003 81.8594 19.7363C81.3314 19.2723 80.6754 19.0403 79.8914 19.0403ZM94.2112 29.0243C93.0112 29.0243 91.9472 28.7683 91.0192 28.2563C90.0912 27.7443 89.3632 27.0243 88.8352 26.0963C88.3072 25.1683 88.0432 24.0963 88.0432 22.8803C88.0432 21.6483 88.2992 20.5523 88.8112 19.5923C89.3392 18.6323 90.0592 17.8883 90.9712 17.3603C91.8992 16.8163 92.9872 16.5443 94.2352 16.5443C95.4032 16.5443 96.4352 16.8003 97.3312 17.3123C98.2272 17.8243 98.9232 18.5283 99.4192 19.4243C99.9312 20.3043 100.187 21.2883 100.187 22.3763C100.187 22.5523 100.179 22.7363 100.163 22.9283C100.163 23.1203 100.155 23.3203 100.139 23.5283H91.0912C91.1552 24.4563 91.4752 25.1843 92.0512 25.7123C92.6432 26.2403 93.3552 26.5043 94.1872 26.5043C94.8112 26.5043 95.3312 26.3683 95.7472 26.0963C96.1792 25.8083 96.4992 25.4403 96.7072 24.9923H99.8272C99.6032 25.7443 99.2272 26.4323 98.6992 27.0563C98.1872 27.6643 97.5472 28.1443 96.7792 28.4963C96.0272 28.8483 95.1712 29.0243 94.2112 29.0243ZM94.2352 19.0403C93.4832 19.0403 92.8192 19.2563 92.2432 19.6883C91.6672 20.1043 91.2992 20.7443 91.1392 21.6083H97.0672C97.0192 20.8243 96.7312 20.2003 96.2032 19.7363C95.6752 19.2723 95.0192 19.0403 94.2352 19.0403ZM104.427 14.9843C103.867 14.9843 103.403 14.8163 103.035 14.4803C102.683 14.1443 102.507 13.7203 102.507 13.2083C102.507 12.6963 102.683 12.2803 103.035 11.9603C103.403 11.6243 103.867 11.4563 104.427 11.4563C104.987 11.4563 105.443 11.6243 105.795 11.9603C106.163 12.2803 106.347 12.6963 106.347 13.2083C106.347 13.7203 106.163 14.1443 105.795 14.4803C105.443 14.8163 104.987 14.9843 104.427 14.9843ZM102.891 28.7363V16.8323H105.963V28.7363H102.891ZM114.881 29.0243C113.729 29.0243 112.689 28.7603 111.761 28.2323C110.849 27.7043 110.121 26.9763 109.577 26.0483C109.049 25.1043 108.785 24.0163 108.785 22.7843C108.785 21.5523 109.057 20.4723 109.601 19.5443C110.145 18.6003 110.873 17.8643 111.785 17.3363C112.713 16.8083 113.753 16.5443 114.905 16.5443C116.041 16.5443 117.065 16.8083 117.977 17.3363C118.905 17.8643 119.633 18.6003 120.161 19.5443C120.705 20.4723 120.977 21.5523 120.977 22.7843C120.977 24.0163 120.705 25.1043 120.161 26.0483C119.633 26.9763 118.905 27.7043 117.977 28.2323C117.049 28.7603 116.017 29.0243 114.881 29.0243ZM114.881 26.3603C115.681 26.3603 116.377 26.0643 116.969 25.4723C117.561 24.8643 117.857 23.9683 117.857 22.7843C117.857 21.6003 117.561 20.7123 116.969 20.1203C116.377 19.5123 115.689 19.2083 114.905 19.2083C114.089 19.2083 113.385 19.5123 112.793 20.1203C112.217 20.7123 111.929 21.6003 111.929 22.7843C111.929 23.9683 112.217 24.8643 112.793 25.4723C113.385 26.0643 114.081 26.3603 114.881 26.3603ZM125.044 28.9043C124.484 28.9043 124.02 28.7283 123.652 28.3763C123.3 28.0243 123.124 27.6003 123.124 27.1043C123.124 26.5923 123.3 26.1603 123.652 25.8083C124.02 25.4563 124.484 25.2803 125.044 25.2803C125.604 25.2803 126.06 25.4563 126.412 25.8083C126.78 26.1603 126.964 26.5923 126.964 27.1043C126.964 27.6003 126.78 28.0243 126.412 28.3763C126.06 28.7283 125.604 28.9043 125.044 28.9043Z" fill="white"/>
</svg>
