<?xml version="1.0" encoding="UTF-8"?>
<svg id="Layer_2" data-name="Layer 2" xmlns="http://www.w3.org/2000/svg" viewBox="0 0 1618.02 916.01">
  <defs>
    <style>
      .cls-1 {
        fill: #272525;
      }
    </style>
  </defs>
  <path class="cls-1" d="m757.44,382.56c-19.35-45.73-47.02-86.78-82.27-122.03s-76.31-62.93-122.04-82.27c-47.37-20.04-97.66-30.2-149.47-30.2s-102.11,10.16-149.48,30.2c-45.73,19.34-86.79,47.02-122.03,82.27-35.25,35.25-62.93,76.3-82.27,122.03-20.04,47.37-30.2,97.66-30.2,149.48s10.16,102.1,30.2,149.47c19.34,45.73,47.02,86.79,82.27,122.04,35.24,35.25,76.3,62.93,122.03,82.27,47.37,20.03,97.66,30.19,149.48,30.19s102.1-10.16,149.47-30.19c45.73-19.34,86.79-47.02,122.04-82.27s62.92-76.31,82.27-122.04c20.03-47.37,30.19-97.66,30.19-149.47s-10.16-102.11-30.19-149.48Zm-353.78-135.28c140.09,0,256.89,101.7,280.43,235.15H123.23c23.54-133.45,140.33-235.15,280.43-235.15Zm0,569.52c-140.1,0-256.89-101.7-280.43-235.15h560.86c-23.54,133.45-140.34,235.15-280.43,235.15Z"/>
  <path class="cls-1" d="m1594.06,532.04h.39c0,6.93-.18,13.83-.55,20.7-.51,9.7-1.38,19.34-2.62,28.91-4.41,34.34-13.45,67.77-27.03,99.86-19.34,45.73-47.02,86.79-82.26,122.04-35.25,35.25-76.31,62.93-122.04,82.27-47.37,20.03-97.66,30.19-149.47,30.19s-102.11-10.16-149.48-30.19c-45.73-19.34-86.79-47.02-122.04-82.27-35.24-35.25-62.92-76.31-82.26-122.04-20.04-47.37-30.2-97.66-30.2-149.47s10.16-102.11,30.2-149.48c19.34-45.73,47.02-86.78,82.26-122.03,35.25-35.25,76.31-62.93,122.04-82.27,47.37-20.04,97.66-30.2,149.48-30.2v99.22c-157.02,0-284.77,127.74-284.77,284.76s127.75,284.76,284.77,284.76c140.09,0,256.89-101.7,280.43-235.15h-280.43v-99.22h383.97l-.39,49.61Z"/>
</svg>